<svg width="16" height="16" viewBox="0 0 16 16" fill="none" xmlns="http://www.w3.org/2000/svg">
<path d="M12.9997 2.66732H10.9997V1.66732C10.9997 1.57891 10.9646 1.49413 10.902 1.43162C10.8395 1.3691 10.7547 1.33398 10.6663 1.33398C10.5779 1.33398 10.4931 1.3691 10.4306 1.43162C10.3681 1.49413 10.333 1.57891 10.333 1.66732V2.66732H5.66634V1.66732C5.66634 1.57891 5.63122 1.49413 5.56871 1.43162C5.5062 1.3691 5.42141 1.33398 5.33301 1.33398C5.2446 1.33398 5.15982 1.3691 5.09731 1.43162C5.03479 1.49413 4.99967 1.57891 4.99967 1.66732V2.66732H2.99967C2.55781 2.66785 2.13419 2.84361 1.82175 3.15606C1.5093 3.4685 1.33354 3.89212 1.33301 4.33398V13.0007C1.33354 13.4425 1.5093 13.8661 1.82175 14.1786C2.13419 14.491 2.55781 14.6668 2.99967 14.6673H12.9997C13.4416 14.667 13.8653 14.4913 14.1778 14.1788C14.4903 13.8663 14.666 13.4426 14.6663 13.0007V4.33398C14.666 3.89207 14.4903 3.46835 14.1778 3.15586C13.8653 2.84338 13.4416 2.66767 12.9997 2.66732ZM13.9997 13.0007C13.9997 13.2659 13.8943 13.5202 13.7068 13.7078C13.5192 13.8953 13.2649 14.0007 12.9997 14.0007H2.99967C2.73446 14.0007 2.4801 13.8953 2.29257 13.7078C2.10503 13.5202 1.99967 13.2659 1.99967 13.0007V7.33398H13.9997V13.0007ZM13.9997 6.66732H1.99967V4.33398C1.99967 3.78198 2.44634 3.33398 2.99967 3.33398H4.99967V4.33398C4.99967 4.42239 5.03479 4.50717 5.09731 4.56969C5.15982 4.6322 5.2446 4.66732 5.33301 4.66732C5.42141 4.66732 5.5062 4.6322 5.56871 4.56969C5.63122 4.50717 5.66634 4.42239 5.66634 4.33398V3.33398H10.333V4.33398C10.333 4.42239 10.3681 4.50717 10.4306 4.56969C10.4931 4.6322 10.5779 4.66732 10.6663 4.66732C10.7547 4.66732 10.8395 4.6322 10.902 4.56969C10.9646 4.50717 10.9997 4.42239 10.9997 4.33398V3.33398H12.9997C13.2649 3.33398 13.5192 3.43934 13.7068 3.62688C13.8943 3.81441 13.9997 4.06877 13.9997 4.33398V6.66732Z" fill="#2986CE"/>
</svg>
