<svg width="30" height="30" viewBox="0 0 30 30" fill="none" xmlns="http://www.w3.org/2000/svg">
<path d="M15 29C17.7689 29 20.4757 28.1789 22.778 26.6406C25.0803 25.1022 26.8747 22.9157 27.9343 20.3576C28.9939 17.7994 29.2712 14.9845 28.731 12.2687C28.1908 9.55301 26.8574 7.05844 24.8995 5.10051C22.9416 3.14258 20.447 1.80921 17.7313 1.26901C15.0155 0.728819 12.2006 1.00607 9.64243 2.06569C7.08426 3.12532 4.89776 4.91973 3.35943 7.22202C1.82109 9.52431 1 12.2311 1 15C1 17.3147 1.56 19.4956 2.55556 21.4198L1 29L8.58022 27.4444C10.5029 28.4384 12.6869 29 15 29Z" stroke="#373737" stroke-linecap="round" stroke-linejoin="round"/>
</svg>
