<svg width="17" height="16" viewBox="0 0 17 16" fill="none" xmlns="http://www.w3.org/2000/svg">
<path d="M8.71881 7.5C8.71881 7.36739 8.6654 7.24021 8.57033 7.14645C8.47525 7.05268 8.3463 7 8.21184 7C8.07738 7 7.94843 7.05268 7.85336 7.14645C7.75828 7.24021 7.70487 7.36739 7.70487 7.5V10.5C7.70487 10.6326 7.75828 10.7598 7.85336 10.8536C7.94843 10.9473 8.07738 11 8.21184 11C8.3463 11 8.47525 10.9473 8.57033 10.8536C8.6654 10.7598 8.71881 10.6326 8.71881 10.5V7.5ZM8.9723 5.5C8.9723 5.69878 8.89223 5.88942 8.74972 6.02998C8.6072 6.17054 8.4139 6.2495 8.21235 6.2495C8.0108 6.2495 7.8175 6.17054 7.67498 6.02998C7.53246 5.88942 7.4524 5.69878 7.4524 5.5C7.4524 5.30135 7.53241 5.11084 7.67483 4.97038C7.81726 4.82991 8.01042 4.751 8.21184 4.751C8.41326 4.751 8.60643 4.82991 8.74885 4.97038C8.89127 5.11084 8.9723 5.30135 8.9723 5.5ZM8.21286 1C6.33045 1 4.52514 1.7375 3.19408 3.05025C1.86302 4.36301 1.11523 6.14348 1.11523 8C1.11523 9.85652 1.86302 11.637 3.19408 12.9497C4.52514 14.2625 6.33045 15 8.21286 15C10.0953 15 11.9006 14.2625 13.2316 12.9497C14.5627 11.637 15.3105 9.85652 15.3105 8C15.3105 6.14348 14.5627 4.36301 13.2316 3.05025C11.9006 1.7375 10.0953 1 8.21286 1ZM2.12918 8C2.12918 7.21207 2.28654 6.43185 2.59227 5.7039C2.89801 4.97595 3.34613 4.31451 3.91105 3.75736C4.47597 3.20021 5.14663 2.75825 5.88473 2.45672C6.62284 2.15519 7.41394 2 8.21286 2C9.01178 2 9.80287 2.15519 10.541 2.45672C11.2791 2.75825 11.9497 3.20021 12.5147 3.75736C13.0796 4.31451 13.5277 4.97595 13.8334 5.7039C14.1392 6.43185 14.2965 7.21207 14.2965 8C14.2965 9.5913 13.6556 11.1174 12.5147 12.2426C11.3738 13.3679 9.82635 14 8.21286 14C6.59936 14 5.05196 13.3679 3.91105 12.2426C2.77014 11.1174 2.12918 9.5913 2.12918 8Z" fill="#2986CE"/>
</svg>
