<svg width="28" height="30" viewBox="0 0 28 30" fill="none" xmlns="http://www.w3.org/2000/svg">
<path d="M21.5333 8.46667L14.1077 1L6.6 8.46667M14.1077 1.0392V23.4M8.46667 14.0667H4.73333C3.74319 14.0667 2.7936 14.46 2.09347 15.1601C1.39333 15.8603 1 16.8099 1 17.8V25.2667C1 26.2568 1.39333 27.2064 2.09347 27.9065C2.7936 28.6067 3.74319 29 4.73333 29H23.4C24.3901 29 25.3397 28.6067 26.0399 27.9065C26.74 27.2064 27.1333 26.2568 27.1333 25.2667V17.8C27.1333 16.8099 26.74 15.8603 26.0399 15.1601C25.3397 14.46 24.3901 14.0667 23.4 14.0667H19.6667" stroke="#373737" stroke-linecap="round" stroke-linejoin="round"/>
</svg>
